<svg data-v-2cb57da0="" version="1.0" xmlns="http://www.w3.org/2000/svg" xmlns:xlink="http://www.w3.org/1999/xlink"
     width="100%" height="100%" viewBox="0 0 340.000000 250.000000" preserveAspectRatio="xMidYMid meet"
     color-interpolation-filters="sRGB" style="margin: auto;">
    <rect data-v-2cb57da0="" x="100%" y="100%" width="120" height="120" fill="#ffffff" fill-opacity="1"
          class="background"></rect> <!---->
    <g data-v-2cb57da0="" fill="#333" class="icon-text-wrapper icon-svg-group iconsvg"
       transform="translate(120,75.00000165833637)">
        <g fill="#333" class="iconsvg-imagesvg icon_container" transform="translate(-100,-120)">
            <rect fill="#333" fill-opacity="0" stroke-width="2" x="0" y="0" width="100" height="100"
                  class="image-rect"></rect>
            <svg viewBox="0 0 20 20" x="0" y="0" width="100" height="100" class="image-svg-svg bn"
                 style="overflow: visible;">
                <g hollow-target="iconBnOutline">
                    <g mask="url(#f4b80ce4-9cab-47b4-8a6d-4add8df3c837)">
                        <svg xmlns:dc="http://purl.org/dc/elements/1.1/" xmlns:cc="http://creativecommons.org/ns#"
                             xmlns:rdf="http://www.w3.org/1999/02/22-rdf-syntax-ns#"
                             xmlns:svg="http://www.w3.org/2000/svg" xmlns="http://www.w3.org/2000/svg"
                             xmlns:sodipodi="http://sodipodi.sourceforge.net/DTD/sodipodi-0.dtd"
                             xmlns:inkscape="http://www.inkscape.org/namespaces/inkscape" version="1.1" x="0" y="0"
                             viewBox="12.0091 6.86902 75.9818 86.26184" style="overflow: visible;" width="60"
                             height="68.11757092742073" filtersec="colorsf1156717646"
                             filter="url(#ryka-0L8da5BRlPC0X5qU)">
                            <g transform="scale(1, 1) skewX(0)">
                                <g transform="translate(0,-952.36218)">
                                    <path style="text-indent:0;text-transform:none;direction:ltr;block-progression:tb;baseline-shift:baseline;color:#000000;enable-background:accumulate;"
                                          d="m 49.931699,959.23267 a 1.8770503,2.1310136 0 0 0 -0.7712,0.2236 l -18.057,10.25005 -18.057,10.25005 a 1.8770503,2.1310136 0 0 0 -1.0374,1.90572 l 0,20.50011 0,20.5001 a 1.8770503,2.1310136 0 0 0 1.0374,1.9057 l 18.057,10.2501 18.057,10.25 a 1.8770503,2.1310136 0 0 0 1.6789,0 l 18.057,-10.25 18.057002,-10.2501 a 1.8770503,2.1310136 0 0 0 1.0375,-1.9057 l 0,-20.5001 0,-20.50011 a 1.8770503,2.1310136 0 0 0 -1.0375,-1.90572 l -18.057002,-10.25005 -18.057,-10.25005 a 1.8770503,2.1310136 0 0 0 -0.9077,-0.2236 z m 0.0683,4.51154 17.2175,9.77355 17.019602,9.66097 0,19.18347 0,19.1835 -17.019602,9.6609 -17.2175,9.7736 -17.2176,-9.7736 -17.0195,-9.6609 0,-19.1835 0,-19.18347 17.0195,-9.66097 17.2176,-9.77355 z"
                                          fill-opacity="1" fill-rule="evenodd" stroke="none" marker="none"
                                          visibility="visible" display="inline" overflow="visible"></path>
                                </g>
                            </g>
                            <defs>
                                <filter id="ryka-0L8da5BRlPC0X5qU">
                                    <feColorMatrix type="matrix"
                                                   values="0 0 0 0 0.19921875  0 0 0 0 0.19921875  0 0 0 0 0.19921875  0 0 0 1 0"></feColorMatrix>
                                </filter>
                            </defs>
                        </svg>
                    </g>
                    <g filter="url(#colors9774925081)">
                        <svg xmlns="http://www.w3.org/2000/svg" xmlns:xlink="http://www.w3.org/1999/xlink"
                             viewBox="0 0 64.72800000000001 67.248" width="45" height="51.08818" x="7.5"
                             y="8.514695463710364" class="image-svg-letter">
                            <path transform="translate(-3.3120000000000003 58.68000000000001)"
                                  d="M42.62-55.37L41.83-58.68L28.08-58.54C28.44-57.67 28.87-56.59 29.23-55.37L3.31-55.37L3.31-45.79L68.04-45.79L68.04-55.37ZM12.02-43.42L12.02-27.36L59.47-27.36L59.47-43.42ZM48.24-33.77L23.18-33.77L23.18-37.44L48.24-37.44ZM6.48 8.06L17.86 8.06L17.86-16.42L53.86-16.42L53.86-5.62C53.86-3.67 53.21-3.02 50.83-2.81L50.33-2.81L50.33-14.11L21.10-14.11L21.10 2.52L48.10 2.52L49.97 8.57L56.23 8.06C62.78 7.49 64.94 5.54 64.94-0.29L64.94-24.98L6.48-24.98ZM39.82-4.10L31.61-4.10L31.61-8.35L39.82-8.35Z"></path>
                        </svg>
                    </g>
                </g>
                <mask id="f4b80ce4-9cab-47b4-8a6d-4add8df3c837">
                    <g fill="white">
                        <svg xmlns:dc="http://purl.org/dc/elements/1.1/" xmlns:cc="http://creativecommons.org/ns#"
                             xmlns:rdf="http://www.w3.org/1999/02/22-rdf-syntax-ns#"
                             xmlns:svg="http://www.w3.org/2000/svg" xmlns="http://www.w3.org/2000/svg"
                             xmlns:sodipodi="http://sodipodi.sourceforge.net/DTD/sodipodi-0.dtd"
                             xmlns:inkscape="http://www.inkscape.org/namespaces/inkscape" version="1.1" x="0" y="0"
                             viewBox="12.0091 6.86902 75.9818 86.26184" style="overflow: visible;" width="60"
                             height="68.11757092742073" filtersec="colorsf1156717646">
                            <g transform="scale(1, 1) skewX(0)">
                                <g transform="translate(0,-952.36218)">
                                    <path d="m 49.931699,959.23267 a 1.8770503,2.1310136 0 0 0 -0.7712,0.2236 l -18.057,10.25005 -18.057,10.25005 a 1.8770503,2.1310136 0 0 0 -1.0374,1.90572 l 0,20.50011 0,20.5001 a 1.8770503,2.1310136 0 0 0 1.0374,1.9057 l 18.057,10.2501 18.057,10.25 a 1.8770503,2.1310136 0 0 0 1.6789,0 l 18.057,-10.25 18.057002,-10.2501 a 1.8770503,2.1310136 0 0 0 1.0375,-1.9057 l 0,-20.5001 0,-20.50011 a 1.8770503,2.1310136 0 0 0 -1.0375,-1.90572 l -18.057002,-10.25005 -18.057,-10.25005 a 1.8770503,2.1310136 0 0 0 -0.9077,-0.2236 z m 0.0683,4.51154 17.2175,9.77355 17.019602,9.66097 0,19.18347 0,19.1835 -17.019602,9.6609 -17.2175,9.7736 -17.2176,-9.7736 -17.0195,-9.6609 0,-19.1835 0,-19.18347 17.0195,-9.66097 17.2176,-9.77355 z"
                                          fill-rule="evenodd" stroke="white" marker="none" display="inline"
                                          overflow="visible"></path>
                                </g>
                            </g>
                            <defs></defs>
                        </svg>
                    </g>
                    <g fill="black" filter="url(#79aed9a2-6e2f-430b-bd82-4f9882ac3d76)">
                        <svg xmlns="http://www.w3.org/2000/svg" xmlns:xlink="http://www.w3.org/1999/xlink"
                             viewBox="0 0 64.72800000000001 67.248" width="45" height="51.08818" x="7.5"
                             y="8.514695463710364" class="image-svg-letter">
                            <path transform="translate(-3.3120000000000003 58.68000000000001)"
                                  d="M42.62-55.37L41.83-58.68L28.08-58.54C28.44-57.67 28.87-56.59 29.23-55.37L3.31-55.37L3.31-45.79L68.04-45.79L68.04-55.37ZM12.02-43.42L12.02-27.36L59.47-27.36L59.47-43.42ZM48.24-33.77L23.18-33.77L23.18-37.44L48.24-37.44ZM6.48 8.06L17.86 8.06L17.86-16.42L53.86-16.42L53.86-5.62C53.86-3.67 53.21-3.02 50.83-2.81L50.33-2.81L50.33-14.11L21.10-14.11L21.10 2.52L48.10 2.52L49.97 8.57L56.23 8.06C62.78 7.49 64.94 5.54 64.94-0.29L64.94-24.98L6.48-24.98ZM39.82-4.10L31.61-4.10L31.61-8.35L39.82-8.35Z"></path>
                        </svg>
                    </g>
                    <defs>
                        <filter id="79aed9a2-6e2f-430b-bd82-4f9882ac3d76">
                            <feGaussianBlur in="SourceGraphic" stdDeviation="1.26"></feGaussianBlur>
                            <feComponentTransfer>
                                <feFuncA type="discrete" tableValues="0 1 1 1 1 1 1 1 1 1 1 1 1 1 0"></feFuncA>
                            </feComponentTransfer>
                        </filter>
                    </defs>
                </mask>
            </svg>
            <defs>
                <filter id="colors9774925081">
                    <feColorMatrix type="matrix"
                                   values="#ffc0cb"
                                   class="icon-fecolormatrix"></feColorMatrix>
                </filter>
                <filter id="colorsf1156717646">
                    <feColorMatrix type="matrix"
                                   values="0 0 0 0 0.99609375  0 0 0 0 0.99609375  0 0 0 0 0.99609375  0 0 0 1 0"
                                   class="icon-fecolormatrix"></feColorMatrix>
                </filter>
                <filter id="colorsb9267618706">
                    <feColorMatrix type="matrix" values="0 0 0 0 0  0 0 0 0 0  0 0 0 0 0  0 0 0 1 0"
                                   class="icon-fecolormatrix"></feColorMatrix>
                </filter>
            </defs>
        </g>
        <g transform="translate(50,107)">
            <g data-gra="path-name" fill-rule="" class="tp-name iconsvg-namesvg">
                <g transform="scale(1)">
                    <g>
                        <path d="" transform="translate(0, 0)"></path>
                    </g> <!----> <!----> <!----> <!----> <!----> <!----> <!---->
                </g>
            </g> <!---->
        </g>
    </g>
    <defs v-gra="od"></defs>
</svg>