<svg data-v-2cb57da0="" version="1.0" xmlns="http://www.w3.org/2000/svg" xmlns:xlink="http://www.w3.org/1999/xlink"
     width="100%" height="100%" viewBox="0 0 120.000000 120.000000" preserveAspectRatio="xMidYMid meet"
     color-interpolation-filters="sRGB" style="margin: auto;">
    <rect data-v-2cb57da0="" x="0" y="0" width="120" height="120" fill="#ffffff" fill-opacity="1"
          class="background"></rect> <!---->
    <g data-v-2cb57da0="" fill="#f5576c" class="icon-text-wrapper icon-svg-group iconsvg" transform="translate(7,11)">
        <g fill="#333" class="iconsvg-imagesvg icon_container" transform="translate(0,0)"
           mask="url(#43aff00a-e13b-4ed7-97b2-775e6f25a8f5)">
            <rect fill="#f5576c" fill-opacity="0" stroke-width="2" x="0" y="0" width="100" height="100"
                  class="image-rect"></rect>
            <svg viewBox="0 0 60 60" x="0" y="0" width="100" height="100" class="image-svg-svg bn"
                 style="overflow: visible;">
                <g hollow-target="iconBnFill" mask="url(#85bf3eb3-7340-4796-b412-eca0f66d8dbb)">
                    <g>
                        <svg viewBox="0 0 100 100" xmlns="http://www.w3.org/2000/svg" style="overflow: visible;"
                             width="60" height="60" x="0" y="0" filtersec="colorsf3896220437"
                             filter="url(#CcjBsVkKaD83euz3BXvwq)">
                            <g transform="scale(1, 1) skewX(0)">
                                <path d="M50 0h50v50c0 27.614-22.386 50-50 50S0 77.614 0 50 22.386 0 50 0z" fill="#333"
                                      fill-rule="evenodd"></path>
                            </g>
                            <defs>
                                <filter id="CcjBsVkKaD83euz3BXvwq">
                                    <feColorMatrix type="matrix"
                                                   values="0 0 0 0 0.19921875  0 0 0 0 0.19921875  0 0 0 0 0.19921875  0 0 0 1 0"></feColorMatrix>
                                </filter>
                            </defs>
                        </svg>
                    </g>
                    <g filter="url(#colors5343283139)">
                        <svg xmlns="http://www.w3.org/2000/svg" xmlns:xlink="http://www.w3.org/1999/xlink"
                             viewBox="0 0 65.50390625 70.13066620879121" width="45" height="45" x="7.5" y="7.5"
                             class="image-svg-letter">
                            <path transform="translate(-2.3125 60.91071428571429)"
                                  d="M11.81-42.47L11.81-42.47L11.25-39.94Q11.53-30.09 21.38-29.25L21.38-29.25L22.78-29.25Q33.19-30.38 34.88-40.50L34.88-40.50L34.88-48.94Q34.88-50.06 36.28-50.34L36.28-50.34Q37.69-50.06 37.97-48.94L37.97-48.94L37.97-40.50Q39.66-30.38 52.03-29.25L52.03-29.25L66.09-29.25Q67.22-28.97 67.50-27.56L67.50-27.56Q67.22-26.16 66.09-26.16L66.09-26.16L52.03-26.16Q38.81-25.03 37.97-12.66L37.97-12.66L37.97 0.56Q37.13 14.34 21.94 6.19L21.94 6.19Q19.69 4.78 20.25 3.38L20.25 3.38Q21.38 1.97 23.34 3.09L23.34 3.09Q34.59 9.84 34.88 0.56L34.88 0.56L34.88-12.66Q33.19-24.75 22.22-26.16L22.22-26.16L8.16-26.16Q5.63-25.88 6.19-28.13L6.19-28.13L10.69-53.16Q10.97-54.56 13.22-54.56L13.22-54.56Q45.56-55.41 60.19-60.75L60.19-60.75Q62.16-61.31 63.28-59.91L63.28-59.91Q63.84-58.22 62.16-57.66L62.16-57.66Q49.22-53.72 31.22-52.31L31.22-52.31Q13.22-50.91 11.81-42.47ZM50.34-21.66L50.34-21.66Q58.78-13.22 67.50 0.28L67.50 0.28Q68.34 2.53 66.94 3.66L66.94 3.66Q65.53 4.22 64.41 1.97L64.41 1.97Q56.53-10.41 47.81-19.41L47.81-19.41Q46.69-20.81 47.81-21.94L47.81-21.94Q48.94-22.78 50.34-21.66ZM21.09-19.13L21.09-19.13Q14.63-5.34 5.63 3.94L5.63 3.94Q3.94 5.34 2.81 4.50L2.81 4.50Q1.69 3.38 3.09 1.69L3.09 1.69Q12.66-8.16 18-20.53L18-20.53Q19.13-22.50 20.81-21.94L20.81-21.94Q21.94-21.09 21.09-19.13Z"></path>
                        </svg>
                    </g>
                </g>
                <mask id="85bf3eb3-7340-4796-b412-eca0f66d8dbb">
                    <g fill="white">
                        <svg viewBox="0 0 100 100" xmlns="http://www.w3.org/2000/svg" style="overflow: visible;"
                             width="60" height="60" x="0" y="0" filtersec="colorsf3896220437">
                            <g transform="scale(1, 1) skewX(0)">
                                <path d="M50 0h50v50c0 27.614-22.386 50-50 50S0 77.614 0 50 22.386 0 50 0z"
                                      fill-rule="evenodd"></path>
                            </g>
                            <defs></defs>
                        </svg>
                    </g>
                    <g fill="black">
                        <svg xmlns="http://www.w3.org/2000/svg" xmlns:xlink="http://www.w3.org/1999/xlink"
                             viewBox="0 0 65.50390625 70.13066620879121" width="45" height="45" x="7.5" y="7.5"
                             class="image-svg-letter">
                            <path transform="translate(-2.3125 60.91071428571429)"
                                  d="M11.81-42.47L11.81-42.47L11.25-39.94Q11.53-30.09 21.38-29.25L21.38-29.25L22.78-29.25Q33.19-30.38 34.88-40.50L34.88-40.50L34.88-48.94Q34.88-50.06 36.28-50.34L36.28-50.34Q37.69-50.06 37.97-48.94L37.97-48.94L37.97-40.50Q39.66-30.38 52.03-29.25L52.03-29.25L66.09-29.25Q67.22-28.97 67.50-27.56L67.50-27.56Q67.22-26.16 66.09-26.16L66.09-26.16L52.03-26.16Q38.81-25.03 37.97-12.66L37.97-12.66L37.97 0.56Q37.13 14.34 21.94 6.19L21.94 6.19Q19.69 4.78 20.25 3.38L20.25 3.38Q21.38 1.97 23.34 3.09L23.34 3.09Q34.59 9.84 34.88 0.56L34.88 0.56L34.88-12.66Q33.19-24.75 22.22-26.16L22.22-26.16L8.16-26.16Q5.63-25.88 6.19-28.13L6.19-28.13L10.69-53.16Q10.97-54.56 13.22-54.56L13.22-54.56Q45.56-55.41 60.19-60.75L60.19-60.75Q62.16-61.31 63.28-59.91L63.28-59.91Q63.84-58.22 62.16-57.66L62.16-57.66Q49.22-53.72 31.22-52.31L31.22-52.31Q13.22-50.91 11.81-42.47ZM50.34-21.66L50.34-21.66Q58.78-13.22 67.50 0.28L67.50 0.28Q68.34 2.53 66.94 3.66L66.94 3.66Q65.53 4.22 64.41 1.97L64.41 1.97Q56.53-10.41 47.81-19.41L47.81-19.41Q46.69-20.81 47.81-21.94L47.81-21.94Q48.94-22.78 50.34-21.66ZM21.09-19.13L21.09-19.13Q14.63-5.34 5.63 3.94L5.63 3.94Q3.94 5.34 2.81 4.50L2.81 4.50Q1.69 3.38 3.09 1.69L3.09 1.69Q12.66-8.16 18-20.53L18-20.53Q19.13-22.50 20.81-21.94L20.81-21.94Q21.94-21.09 21.09-19.13Z"></path>
                        </svg>
                    </g>
                </mask>
            </svg>
            <defs>
                <filter id="colors5343283139">
                    <feColorMatrix type="matrix"
                                   values="0 0 0 0 0.19921875  0 0 0 0 0.19921875  0 0 0 0 0.19921875  0 0 0 1 0"
                                   class="icon-fecolormatrix"></feColorMatrix>
                </filter>
                <filter id="colorsf3896220437">
                    <feColorMatrix type="matrix"
                                   values="0 0 0 0 0.99609375  0 0 0 0 0.99609375  0 0 0 0 0.99609375  0 0 0 1 0"
                                   class="icon-fecolormatrix"></feColorMatrix>
                </filter>
                <filter id="colorsb3917093943">
                    <feColorMatrix type="matrix" values="0 0 0 0 0  0 0 0 0 0  0 0 0 0 0  0 0 0 1 0"
                                   class="icon-fecolormatrix"></feColorMatrix>
                </filter>
            </defs>
            <rect v-gra="id" width="112" height="112" transform="translate(-6, -6)" style="pointer-events:none;"
                  fill="url(#5mVdBv4UiYeXPZvYtXcGO)"></rect>
        </g>
        <g transform="translate(50,107)">
            <g data-gra="path-name" fill-rule="" class="tp-name iconsvg-namesvg"
               fill="url(#e688e7f3-ca17-4359-9597-0c150741b115)">
                <g transform="scale(1)">
                    <g>
                        <path d="" transform="translate(0, 0)"></path>
                    </g> <!----> <!----> <!----> <!----> <!----> <!----> <!---->
                </g>
            </g> <!---->
        </g>
    </g>
    <defs v-gra="od">
        <linearGradient x1="0" y1="1" x2="0" y2="0" id="e688e7f3-ca17-4359-9597-0c150741b115">
            <stop offset="0%" stop-color="#f5576c"></stop>
            <stop offset="100%" stop-color="#f093fb"></stop>
        </linearGradient>
        <filter id="42443b3f1de60f6b6fd3b6a9844b4764" filterUnits="userSpaceOnUse">
            <feColorMatrix type="matrix"
                           values="0 0 0 0 0.99609375  0 0 0 0 0.99609375  0 0 0 0 0.99609375  0 0 0 1 0"></feColorMatrix>
        </filter>
    </defs>
    <defs v-gra="id">
        <filter id="69f8ef35-84dd-4a5d-a6cd-fd63d0394499" filterUnits="userSpaceOnUse">
            <feColorMatrix type="matrix"
                           values="0 0 0 0 0.99609375  0 0 0 0 0.99609375  0 0 0 0 0.99609375  0 0 0 1 0"></feColorMatrix>
        </filter>
        <linearGradient x1="0" y1="1" x2="0" y2="0" id="5mVdBv4UiYeXPZvYtXcGO">
            <stop offset="0%" stop-color="#f5576c"></stop>
            <stop offset="100%" stop-color="#f093fb"></stop>
        </linearGradient>
        <filter id="42443b3f1de60f6b6fd3b6a9844b4764" filterUnits="userSpaceOnUse">
            <feColorMatrix type="matrix"
                           values="0 0 0 0 0.99609375  0 0 0 0 0.99609375  0 0 0 0 0.99609375  0 0 0 1 0"></feColorMatrix>
        </filter>
    </defs>
    <mask v-gra="im" id="43aff00a-e13b-4ed7-97b2-775e6f25a8f5">
        <g fill="#333" class="iconsvg-imagesvg icon_container" filter="url(#69f8ef35-84dd-4a5d-a6cd-fd63d0394499)">
            <rect fill="#f5576c" fill-opacity="0" stroke-width="2" x="0" y="0" width="100" height="100"
                  class="image-rect"></rect>
            <svg viewBox="0 0 60 60" x="0" y="0" width="100" height="100" class="image-svg-svg bn"
                 style="overflow: visible;">
                <g hollow-target="iconBnFill" mask="url(#85bf3eb3-7340-4796-b412-eca0f66d8dbb)">
                    <g>
                        <svg viewBox="0 0 100 100" xmlns="http://www.w3.org/2000/svg" style="overflow: visible;"
                             width="60" height="60" x="0" y="0" filtersec="colorsf3896220437">
                            <g transform="scale(1, 1) skewX(0)">
                                <path d="M50 0h50v50c0 27.614-22.386 50-50 50S0 77.614 0 50 22.386 0 50 0z" fill="#333"
                                      fill-rule="evenodd"></path>
                            </g>
                            <defs>
                                <filter id="CcjBsVkKaD83euz3BXvwq">
                                    <feColorMatrix type="matrix"
                                                   values="0 0 0 0 0.19921875  0 0 0 0 0.19921875  0 0 0 0 0.19921875  0 0 0 1 0"></feColorMatrix>
                                </filter>
                            </defs>
                        </svg>
                    </g>
                    <g>
                        <svg xmlns="http://www.w3.org/2000/svg" xmlns:xlink="http://www.w3.org/1999/xlink"
                             viewBox="0 0 65.50390625 70.13066620879121" width="45" height="45" x="7.5" y="7.5"
                             class="image-svg-letter">
                            <path transform="translate(-2.3125 60.91071428571429)"
                                  d="M11.81-42.47L11.81-42.47L11.25-39.94Q11.53-30.09 21.38-29.25L21.38-29.25L22.78-29.25Q33.19-30.38 34.88-40.50L34.88-40.50L34.88-48.94Q34.88-50.06 36.28-50.34L36.28-50.34Q37.69-50.06 37.97-48.94L37.97-48.94L37.97-40.50Q39.66-30.38 52.03-29.25L52.03-29.25L66.09-29.25Q67.22-28.97 67.50-27.56L67.50-27.56Q67.22-26.16 66.09-26.16L66.09-26.16L52.03-26.16Q38.81-25.03 37.97-12.66L37.97-12.66L37.97 0.56Q37.13 14.34 21.94 6.19L21.94 6.19Q19.69 4.78 20.25 3.38L20.25 3.38Q21.38 1.97 23.34 3.09L23.34 3.09Q34.59 9.84 34.88 0.56L34.88 0.56L34.88-12.66Q33.19-24.75 22.22-26.16L22.22-26.16L8.16-26.16Q5.63-25.88 6.19-28.13L6.19-28.13L10.69-53.16Q10.97-54.56 13.22-54.56L13.22-54.56Q45.56-55.41 60.19-60.75L60.19-60.75Q62.16-61.31 63.28-59.91L63.28-59.91Q63.84-58.22 62.16-57.66L62.16-57.66Q49.22-53.72 31.22-52.31L31.22-52.31Q13.22-50.91 11.81-42.47ZM50.34-21.66L50.34-21.66Q58.78-13.22 67.50 0.28L67.50 0.28Q68.34 2.53 66.94 3.66L66.94 3.66Q65.53 4.22 64.41 1.97L64.41 1.97Q56.53-10.41 47.81-19.41L47.81-19.41Q46.69-20.81 47.81-21.94L47.81-21.94Q48.94-22.78 50.34-21.66ZM21.09-19.13L21.09-19.13Q14.63-5.34 5.63 3.94L5.63 3.94Q3.94 5.34 2.81 4.50L2.81 4.50Q1.69 3.38 3.09 1.69L3.09 1.69Q12.66-8.16 18-20.53L18-20.53Q19.13-22.50 20.81-21.94L20.81-21.94Q21.94-21.09 21.09-19.13Z"></path>
                        </svg>
                    </g>
                </g>
                <mask id="85bf3eb3-7340-4796-b412-eca0f66d8dbb">
                    <g fill="white">
                        <svg viewBox="0 0 100 100" xmlns="http://www.w3.org/2000/svg" style="overflow: visible;"
                             width="60" height="60" x="0" y="0" filtersec="colorsf3896220437">
                            <g transform="scale(1, 1) skewX(0)">
                                <path d="M50 0h50v50c0 27.614-22.386 50-50 50S0 77.614 0 50 22.386 0 50 0z"
                                      fill-rule="evenodd"></path>
                            </g>
                            <defs></defs>
                        </svg>
                    </g>
                    <g fill="black">
                        <svg xmlns="http://www.w3.org/2000/svg" xmlns:xlink="http://www.w3.org/1999/xlink"
                             viewBox="0 0 65.50390625 70.13066620879121" width="45" height="45" x="7.5" y="7.5"
                             class="image-svg-letter">
                            <path transform="translate(-2.3125 60.91071428571429)"
                                  d="M11.81-42.47L11.81-42.47L11.25-39.94Q11.53-30.09 21.38-29.25L21.38-29.25L22.78-29.25Q33.19-30.38 34.88-40.50L34.88-40.50L34.88-48.94Q34.88-50.06 36.28-50.34L36.28-50.34Q37.69-50.06 37.97-48.94L37.97-48.94L37.97-40.50Q39.66-30.38 52.03-29.25L52.03-29.25L66.09-29.25Q67.22-28.97 67.50-27.56L67.50-27.56Q67.22-26.16 66.09-26.16L66.09-26.16L52.03-26.16Q38.81-25.03 37.97-12.66L37.97-12.66L37.97 0.56Q37.13 14.34 21.94 6.19L21.94 6.19Q19.69 4.78 20.25 3.38L20.25 3.38Q21.38 1.97 23.34 3.09L23.34 3.09Q34.59 9.84 34.88 0.56L34.88 0.56L34.88-12.66Q33.19-24.75 22.22-26.16L22.22-26.16L8.16-26.16Q5.63-25.88 6.19-28.13L6.19-28.13L10.69-53.16Q10.97-54.56 13.22-54.56L13.22-54.56Q45.56-55.41 60.19-60.75L60.19-60.75Q62.16-61.31 63.28-59.91L63.28-59.91Q63.84-58.22 62.16-57.66L62.16-57.66Q49.22-53.72 31.22-52.31L31.22-52.31Q13.22-50.91 11.81-42.47ZM50.34-21.66L50.34-21.66Q58.78-13.22 67.50 0.28L67.50 0.28Q68.34 2.53 66.94 3.66L66.94 3.66Q65.53 4.22 64.41 1.97L64.41 1.97Q56.53-10.41 47.81-19.41L47.81-19.41Q46.69-20.81 47.81-21.94L47.81-21.94Q48.94-22.78 50.34-21.66ZM21.09-19.13L21.09-19.13Q14.63-5.34 5.63 3.94L5.63 3.94Q3.94 5.34 2.81 4.50L2.81 4.50Q1.69 3.38 3.09 1.69L3.09 1.69Q12.66-8.16 18-20.53L18-20.53Q19.13-22.50 20.81-21.94L20.81-21.94Q21.94-21.09 21.09-19.13Z"></path>
                        </svg>
                    </g>
                </mask>
            </svg>
            <defs>
                <filter id="colors5343283139">
                    <feColorMatrix type="matrix"
                                   values="0 0 0 0 0.19921875  0 0 0 0 0.19921875  0 0 0 0 0.19921875  0 0 0 1 0"
                                   class="icon-fecolormatrix"></feColorMatrix>
                </filter>
                <filter id="colorsf3896220437">
                    <feColorMatrix type="matrix"
                                   values="0 0 0 0 0.99609375  0 0 0 0 0.99609375  0 0 0 0 0.99609375  0 0 0 1 0"
                                   class="icon-fecolormatrix"></feColorMatrix>
                </filter>
                <filter id="colorsb3917093943">
                    <feColorMatrix type="matrix" values="0 0 0 0 0  0 0 0 0 0  0 0 0 0 0  0 0 0 1 0"
                                   class="icon-fecolormatrix"></feColorMatrix>
                </filter>
            </defs>
        </g>
    </mask>
</svg>