<svg t="1648084686657" class="icon" viewBox="0 0 1024 1024" version="1.1" xmlns="http://www.w3.org/2000/svg" p-id="7197" width="200" height="200"><path d="M660.53 436.74c0-6.47 6.47-12.95 12.95-12.95h148.9c6.47 0 6.47 0 6.47-6.47 6.47-6.47 6.47-12.95 0-19.42L524.58 106.58c-6.47-6.47-12.95-6.47-19.42 0L330.37 274.9l330.16 317.21V436.74zM142.63 779.85c-6.47 0-12.95 6.47-12.95 12.95V870.48c0 6.47 6.47 6.47 12.95 6.47h621.48L667 779.85H142.63zM906.53 792.8c0-6.47-6.47-12.95-12.95-12.95h-32.37l45.32 45.32V792.8zM291.53 423.8l-58.26-58.26-32.37 32.36-6.47 6.47c0 6.47 6.47 12.95 12.95 12.95l84.15 6.48zM382.16 695.69h194.21L369.21 501.48v187.74c0 6.47 6.48 6.47 12.95 6.47zM906.53 864.01L162.05 145.42c-6.47-6.47-12.95-6.47-19.42 0l-25.89 32.37c-6.47 6.47-6.47 12.95 0 19.42l738 718.59c6.47 6.47 12.95 6.47 19.42 0l25.89-25.89c12.96-12.95 12.96-25.9 6.48-25.9z" p-id="7198" fill="#707070"></path></svg>